HIERARCHY
ROOT Hips
{
    OFFSET 0.000000 0.000000 0.000000
    CHANNELS 6 Xposition Yposition Zposition Zrotation Xrotation Yrotation
    JOINT Spine
    {
        OFFSET -0.000000 14.517291 0.000000
        CHANNELS 3 Zrotation Xrotation Yrotation
        JOINT Spine1
        {
            OFFSET -0.000000 37.558300 0.000000
            CHANNELS 3 Zrotation Xrotation Yrotation
            JOINT Neck
            {
                OFFSET -0.000000 37.404057 3.400369
                CHANNELS 3 Zrotation Xrotation Yrotation
                JOINT Head
                {
                    OFFSET -0.000000 24.785618 -3.540803
                    CHANNELS 3 Zrotation Xrotation Yrotation
                    End Site
                    {
                        OFFSET -0.000000 35.408028 0.000000
                    }
                }
            }
            JOINT LeftShoulder
            {
                OFFSET 6.992933 33.973492 -0.192664
                CHANNELS 3 Zrotation Xrotation Yrotation
                JOINT LeftArm
                {
                    OFFSET 21.527611 0.000000 0.000000
                    CHANNELS 3 Zrotation Xrotation Yrotation
                    JOINT LeftForeArm
                    {
                        OFFSET 56.353916 0.000000 0.000000
                        CHANNELS 3 Zrotation Xrotation Yrotation
                        JOINT LeftHand
                        {
                            OFFSET 47.774071 0.000000 0.000000
                            CHANNELS 3 Zrotation Xrotation Yrotation
                            End Site
                            {
                                OFFSET 26.556021 0.000000 0.000000
                            }
                        }
                    }
                }
            }
            JOINT RightShoulder
            {
                OFFSET -7.065357 33.973492 -0.192664
                CHANNELS 3 Zrotation Xrotation Yrotation
                JOINT RightArm
                {
                    OFFSET -21.527611 0.000000 0.000000
                    CHANNELS 3 Zrotation Xrotation Yrotation
                    JOINT RightForeArm
                    {
                        OFFSET -56.353916 0.000000 0.000000
                        CHANNELS 3 Zrotation Xrotation Yrotation
                        JOINT RightHand
                        {
                            OFFSET -47.774071 0.000000 0.000000
                            CHANNELS 3 Zrotation Xrotation Yrotation
                            End Site
                            {
                                OFFSET -26.556021 0.000000 0.000000
                            }
                        }
                    }
                }
            }
        }
    }
    JOINT LeftUpLeg
    {
        OFFSET 17.704014 0.000000 0.000000
        CHANNELS 3 Zrotation Xrotation Yrotation
        JOINT LeftLeg
        {
            OFFSET -0.000000 -81.181816 0.000000
            CHANNELS 3 Zrotation Xrotation Yrotation
            JOINT LeftFoot
            {
                OFFSET -0.000000 -62.821102 0.000000
                CHANNELS 3 Zrotation Xrotation Yrotation
                JOINT LeftToeBase
                {
                    OFFSET -0.000000 -11.507608 26.556021
                    CHANNELS 3 Zrotation Xrotation Yrotation
                    End Site
                    {
                        OFFSET -0.000000 0.000000 7.081605
                    }
                }
            }
        }
    }
    JOINT RightUpLeg
    {
        OFFSET -17.704014 0.000000 0.000000
        CHANNELS 3 Zrotation Xrotation Yrotation
        JOINT RightLeg
        {
            OFFSET -0.000000 -81.181816 0.000000
            CHANNELS 3 Zrotation Xrotation Yrotation
            JOINT RightFoot
            {
                OFFSET -0.000000 -62.821102 0.000000
                CHANNELS 3 Zrotation Xrotation Yrotation
                JOINT RightToeBase
                {
                    OFFSET -0.000000 -11.507608 26.556021
                    CHANNELS 3 Zrotation Xrotation Yrotation
                    End Site
                    {
                        OFFSET -0.000000 0.000000 7.081605
                    }
                }
            }
        }
    }
}
MOTION
Frames:    10
Frame Time:    0.008333
-5.623677    160.110870    -94.811180    -6.204268    17.690527    35.592579    3.982786    3.583619    -3.274101    -8.082693    2.472937    -0.878020    23.619194    -9.487753    3.166855    -5.766825    -1.533449    -3.164697    14.757075    1.186359    -28.929840    -22.072786    17.695156    -82.516022    -13.059736    -14.143072    -70.178627    15.488356    -23.608978    -5.756047    -13.515049    -12.728424    1.582417    28.127014    -27.184347    77.787659    -0.702440    -11.285540    19.985136    -4.484476    -12.261207    28.044390    10.938704    -16.384426    2.784137    -7.573558    16.995619    -15.401968    -9.783891    -14.643920    42.279102    0.000000    0.000000    0.000000    -23.844454    -42.614216    -15.462943    10.745275    23.253994    -12.423087    -0.962322    11.947843    -15.043937    0.000000    0.000000    0.000000    
-5.390714    160.104782    -94.900307    -6.115439    17.313610    35.525661    3.863770    3.505557    -3.290697    -8.080798    2.457415    -0.886536    23.554304    -9.543034    3.120143    -5.639665    -1.499308    -3.187651    14.728707    1.178196    -28.918285    -22.092735    17.724089    -82.442368    -13.220140    -14.067670    -70.265732    14.235689    -23.656931    -6.267425    -13.563893    -12.734756    1.543736    28.215796    -27.229761    77.811165    -0.639535    -11.255077    20.024529    -4.582865    -12.265510    28.044641    10.996607    -16.045399    2.903969    -7.538224    17.137428    -15.542078    -9.606239    -14.789935    42.192101    0.000000    0.000000    0.000000    -23.541574    -42.223587    -15.296555    10.581152    23.145531    -12.294199    -0.848499    12.026771    -15.073808    0.000000    0.000000    0.000000    
-5.152366    160.098175    -95.001091    -6.029324    16.931295    35.458359    3.753001    3.442925    -3.298788    -8.096890    2.438714    -0.891817    23.671610    -9.612191    3.126217    -5.753403    -1.485843    -3.241355    14.767304    1.162200    -28.938393    -22.167889    17.745569    -82.368889    -13.303742    -13.982895    -70.344254    13.353777    -23.621260    -6.468184    -13.549147    -12.762765    1.490093    28.124102    -27.196707    77.771645    -0.689557    -11.333705    20.076071    -4.564328    -12.330175    28.040543    11.047896    -15.713605    3.062792    -7.478407    17.301888    -15.713223    -9.428664    -14.961094    42.114902    0.000000    0.000000    0.000000    -23.284563    -41.821945    -14.990324    10.566549    23.003525    -12.312030    -0.772774    12.117932    -15.145601    0.000000    0.000000    0.000000    
-4.917408    160.095337    -95.098930    -5.956575    16.560356    35.383774    3.624959    3.384966    -3.291646    -8.045443    2.362564    -0.897543    23.549206    -9.649663    3.055905    -5.597094    -1.489355    -3.268388    14.711065    1.177714    -28.952698    -22.193220    17.782219    -82.290398    -13.393733    -13.874148    -70.503952    13.638513    -23.609282    -6.382411    -13.626770    -12.741938    1.402574    28.208618    -27.218977    77.841576    -0.641680    -11.356361    20.140373    -4.664616    -12.382501    27.976862    11.115863    -15.390607    3.179410    -7.455806    17.448589    -15.835310    -9.244078    -15.119077    42.052315    0.000000    0.000000    0.000000    -23.028288    -41.436790    -14.638570    10.577199    22.844025    -12.365314    -0.697509    12.233865    -15.223661    0.000000    0.000000    0.000000    
-4.667694    160.097702    -95.197693    -5.882191    16.189438    35.326832    3.530670    3.283916    -3.307834    -8.066691    2.358800    -0.904506    23.502092    -9.708816    3.023213    -5.505290    -1.499049    -3.289368    14.696012    1.161415    -28.951349    -22.231722    17.804798    -82.205879    -13.352836    -13.748974    -70.610886    13.393069    -23.480885    -6.494819    -13.653561    -12.755615    1.378075    28.108534    -27.213175    77.782578    -0.705158    -11.448104    20.191563    -4.725255    -12.473698    27.891165    11.171972    -15.071511    3.214230    -7.442399    17.592495    -15.934114    -9.060404    -15.280455    42.026741    0.000000    0.000000    0.000000    -22.775700    -41.035767    -14.397261    10.522958    22.689598    -12.380555    -0.623461    12.341555    -15.252585    0.000000    0.000000    0.000000    
-4.433284    160.092743    -95.268333    -5.808882    15.779755    35.274185    3.401810    3.216438    -3.313076    -8.033933    2.354840    -0.908861    23.703768    -9.688242    3.082467    -5.744021    -1.645234    -3.316900    14.762191    1.264070    -28.825121    -22.200777    17.734596    -82.367592    -13.488326    -13.649529    -70.683228    13.850858    -23.505604    -6.429566    -13.640824    -12.815846    1.332674    27.919907    -27.155111    77.675407    -0.784664    -11.552725    20.277315    -4.756906    -12.570120    27.866526    11.273996    -14.718666    3.201635    -7.473257    17.733664    -15.990620    -8.861900    -15.441155    41.992313    0.000000    0.000000    0.000000    -22.459579    -40.603115    -14.172944    10.401987    22.550165    -12.299122    -0.521803    12.424208    -15.302383    0.000000    0.000000    0.000000    
-4.179230    160.087997    -95.347740    -5.728284    15.380294    35.214939    3.306812    3.144338    -3.323399    -8.030077    2.324209    -0.915952    23.549774    -9.797310    3.028994    -5.526306    -1.600610    -3.321450    14.657716    1.319803    -28.765699    -21.978165    17.810705    -82.378517    -12.903344    -13.650109    -70.787254    14.384923    -23.121519    -6.083509    -13.683488    -12.798599    1.275337    27.933428    -27.201797    77.713280    -0.764085    -11.586074    20.343863    -4.802118    -12.615563    27.823034    11.347961    -14.370150    3.237294    -7.459922    17.889194    -16.142252    -8.683580    -15.629729    42.001209    0.000000    0.000000    0.000000    -22.161507    -40.173080    -13.939117    10.288681    22.399368    -12.276554    -0.456132    12.521011    -15.314991    0.000000    0.000000    0.000000    
-3.929027    160.082321    -95.436150    -5.665727    14.996365    35.177837    3.231483    3.051773    -3.350204    -8.071066    2.294619    -0.927465    23.523949    -9.833714    2.981665    -5.470051    -1.639943    -3.364958    14.708948    1.294309    -28.743668    -22.103157    17.813742    -82.359161    -13.398791    -13.481371    -70.991714    15.806434    -23.354683    -5.759241    -13.682352    -12.816687    1.225264    27.927050    -27.213999    77.740761    -0.803699    -11.578375    20.388674    -4.743414    -12.586166    27.817581    11.429089    -14.062490    3.234241    -7.468008    18.062777    -16.248857    -8.492352    -15.814532    41.996166    0.000000    0.000000    0.000000    -21.923038    -39.752502    -13.675806    10.273438    22.241314    -12.247017    -0.346532    12.602374    -15.438557    0.000000    0.000000    0.000000    
-3.688356    160.070114    -95.493172    -5.600515    14.588312    35.118858    3.130245    2.971251    -3.357295    -8.062219    2.265045    -0.933530    23.430182    -9.930310    2.940833    -5.341887    -1.593597    -3.382218    14.754757    1.199802    -28.681326    -22.263680    17.914179    -82.287186    -13.502444    -13.349012    -71.059998    14.937332    -23.291821    -5.943664    -13.726756    -12.845874    1.178471    27.931585    -27.219055    77.738403    -0.814373    -11.605713    20.455263    -4.752137    -12.613918    27.835220    11.541903    -13.715380    3.226976    -7.490444    18.229729    -16.334938    -8.316899    -16.008852    41.992443    0.000000    0.000000    0.000000    -21.613968    -39.325378    -13.450795    10.175805    22.110691    -12.166434    -0.266873    12.673182    -15.512105    0.000000    0.000000    0.000000    
-3.422485    160.066208    -95.559738    -5.504920    14.160805    35.045418    3.050856    2.934149    -3.353243    -8.100383    2.200780    -0.936824    23.372965    -10.014322    2.921469    -5.229595    -1.527020    -3.385116    14.724635    1.142100    -28.633230    -22.296589    18.036577    -82.221687    -13.237611    -13.251432    -70.988976    13.192925    -22.988186    -6.526425    -13.719028    -12.823656    1.167141    27.789431    -27.228163    77.669861    -0.893877    -11.662657    20.538614    -4.733673    -12.651808    27.841772    11.622242    -13.324231    3.154005    -7.515747    18.372524    -16.375174    -8.143025    -16.210865    42.003277    0.000000    0.000000    0.000000    -21.324118    -38.861694    -13.202226    10.093031    21.962444    -12.145949    -0.200820    12.762516    -15.522165    0.000000    0.000000    0.000000    
